<svg width="30" height="24" viewBox="0 0 30 24" fill="none" xmlns="http://www.w3.org/2000/svg">
<g clip-path="url(#clip0_157_83)">
<path d="M20.066 12.0983C21.1495 10.8913 21.8148 9.30171 21.8148 7.55627C21.8148 3.79875 18.7575 0.741455 15 0.741455C11.2425 0.741455 8.18521 3.79875 8.18521 7.55627C8.18521 11.3138 11.2425 14.3711 15 14.3711C16.3247 14.3711 17.5581 13.9852 18.6059 13.3284C22.3115 14.7246 24.8628 18.1158 25.1873 22.0378H4.81358C5.03421 19.3979 6.2728 16.936 8.28743 15.1795C8.64265 14.8703 8.67928 14.3328 8.37006 13.9775C8.06169 13.6232 7.52332 13.5857 7.1681 13.8949C4.56569 16.1625 3.0741 19.4405 3.0741 22.8896C3.0741 23.3607 3.45573 23.7415 3.92595 23.7415H26.0741C26.5452 23.7415 26.9259 23.3607 26.9259 22.8896C26.9259 18.2163 24.2171 14.0431 20.066 12.0983ZM9.88891 7.55627C9.88891 4.73749 12.1812 2.44516 15 2.44516C17.8188 2.44516 20.1111 4.73749 20.1111 7.55627C20.1111 10.375 17.8188 12.6674 15 12.6674C12.1812 12.6674 9.88891 10.375 9.88891 7.55627Z" fill="#8C8C8C"/>
</g>
<defs>
<clipPath id="clip0_157_83">
<rect width="30" height="23" fill="white" transform="translate(0 0.741455)"/>
</clipPath>
</defs>
</svg>
