<svg width="30" height="30" viewBox="0 0 30 30" fill="none" xmlns="http://www.w3.org/2000/svg">
<rect width="30" height="30" rx="6" fill="#9E84AA" fill-opacity="0.1"/>
<g clip-path="url(#clip0_1_4030)">
<path d="M19.2 10.2H16.689C16.443 9.504 15.783 9 15 9C14.217 9 13.557 9.504 13.311 10.2H10.8C10.137 10.2 9.59998 10.737 9.59998 11.4V19.8C9.59998 20.463 10.137 21 10.8 21H19.2C19.863 21 20.4 20.463 20.4 19.8V11.4C20.4 10.737 19.863 10.2 19.2 10.2ZM15 10.2C15.33 10.2 15.6 10.467 15.6 10.8C15.6 11.133 15.33 11.4 15 11.4C14.67 11.4 14.4 11.133 14.4 10.8C14.4 10.467 14.67 10.2 15 10.2ZM16.2 18.6H12V17.4H16.2V18.6ZM18 16.2H12V15H18V16.2ZM18 13.8H12V12.6H18V13.8Z" fill="#9E84AA"/>
</g>
<defs>
<clipPath id="clip0_1_4030">
<rect width="10.8" height="12" fill="white" transform="translate(9.59998 9)"/>
</clipPath>
</defs>
</svg>
