<svg width="22" height="22" viewBox="0 0 22 22" fill="none" xmlns="http://www.w3.org/2000/svg">
<path d="M21.335 17.2775L18.5975 13.9175L18.5 8C18.5032 7.96006 18.5032 7.91994 18.5 7.88C17.6375 3.185 14.9075 0.5 11 0.5C6.875 0.5 3.56 3.5 2.75 7.865C2.74594 7.90991 2.74594 7.95509 2.75 8L2.6525 14L0.604998 17.36C0.539171 17.474 0.504517 17.6033 0.504517 17.735C0.504517 17.8667 0.539171 17.996 0.604998 18.11C0.668523 18.2261 0.76166 18.3234 0.874946 18.3919C0.988233 18.4604 1.11763 18.4977 1.25 18.5H8C8 19.2956 8.31607 20.0587 8.87868 20.6213C9.44129 21.1839 10.2043 21.5 11 21.5C11.7956 21.5 12.5587 21.1839 13.1213 20.6213C13.6839 20.0587 14 19.2956 14 18.5H20.75C20.8914 18.4996 21.0297 18.4593 21.1492 18.3836C21.2686 18.308 21.3642 18.2001 21.425 18.0725C21.4866 17.945 21.5108 17.8027 21.4949 17.662C21.4789 17.5213 21.4235 17.388 21.335 17.2775ZM11 20C10.6022 20 10.2206 19.842 9.93934 19.5607C9.65803 19.2794 9.5 18.8978 9.5 18.5H12.5C12.5 18.8978 12.342 19.2794 12.0607 19.5607C11.7794 19.842 11.3978 20 11 20ZM2.5775 17L4.0775 14.57C4.14491 14.4564 4.18113 14.3271 4.1825 14.195L4.25 8.075C4.9325 4.4375 7.64 2 11 2C15.2225 2 16.5725 5.75 17 8.075L17.105 14.195C17.106 14.3642 17.1641 14.528 17.27 14.66L19.175 17H2.5775Z" fill="#707070"/>
</svg>
