<svg width="30" height="21" viewBox="0 0 30 21" fill="none" xmlns="http://www.w3.org/2000/svg">
<g clip-path="url(#clip0_157_70)">
<path d="M27.5605 3.92087H27.5374C27.0914 3.92372 27.0222 3.53635 27.0145 3.35651V0.543616C27.0145 0.243325 26.7712 0 26.4717 0H18.4293C16.4115 0 15.6588 0.74788 15.472 0.98266L15.4207 1.05387L15.4203 1.05509L15.2612 1.27319C15.2608 1.27319 15.2608 1.27319 15.2608 1.27319C15.0472 1.56656 14.8612 1.44164 14.7717 1.34561L14.4674 0.965977L14.3168 0.7845C14.0637 0.518795 13.4041 0 12.0968 0H3.52872C3.22843 0 2.9851 0.243325 2.9851 0.543616V3.3207C2.9851 3.80694 2.72102 3.9046 2.55908 3.92087H2.43864C2.3068 3.92901 2 4.00551 2 4.56988V17.8059C2 18.1306 2.26326 18.3934 2.58797 18.3934H10.4077C12.9024 18.3934 13.9897 19.3342 14.3156 19.6951L14.5015 19.9254H14.502C14.502 19.9254 15.0008 20.4898 15.5265 19.9254L15.6356 19.7976V19.798L15.6372 19.7968L15.7764 19.6341C15.7804 19.6292 15.8138 19.5918 15.8622 19.5421C16.2785 19.1372 17.3189 18.3934 19.3534 18.3934H27.412C27.7371 18.3934 28 18.1306 28 17.8059V4.4417C28 3.96319 27.6537 3.92331 27.5605 3.92087ZM25.8036 15.7291C25.8036 15.9899 25.5859 16.2003 25.3149 16.2003H18.6845C16.3249 16.2003 15.4683 17.2663 15.4683 17.2663L15.3597 17.412L15.3088 17.4824C15.3084 17.4824 15.3084 17.4824 15.3084 17.4824C15.0834 17.788 14.7526 17.4848 14.751 17.4832L14.5984 17.2924C14.4853 17.1565 13.6186 16.1998 11.521 16.1998H4.68512C4.41535 16.1998 4.19725 15.9891 4.19725 15.7287V1.62475C4.19725 1.36433 4.41535 1.15356 4.68512 1.15356H9.9923C13.94 1.15356 14.314 3.39597 14.3396 4.04742V13.8561C14.3396 14.569 14.6794 14.7029 14.871 14.7224H15.1562C15.3516 14.7029 15.662 14.5869 15.662 14.0307V3.92087H15.6588C15.6881 3.10504 16.0063 1.15315 18.3805 1.15315H25.3149C25.5859 1.15315 25.8036 1.36392 25.8036 1.62434V15.7291Z" fill="#4E59E0"/>
</g>
<defs>
<clipPath id="clip0_157_70">
<rect width="30" height="20.1762" fill="white"/>
</clipPath>
</defs>
</svg>
