<svg width="60" height="60" viewBox="0 0 60 60" fill="none" xmlns="http://www.w3.org/2000/svg">
<g filter="url(#filter0_d_157_49)">
<rect x="10.5" y="8" width="39.3333" height="40" rx="6" fill="white"/>
<path d="M23.8867 37H36.4467C37.7633 37 38.8333 35.93 38.8333 34.6133V22.72C38.8333 21.4033 37.7633 20.3333 36.4467 20.3333H35.5V19.6667C35.5 19.3 35.2 19 34.8333 19C34.4666 19 34.1667 19.3 34.1667 19.6667V20.3333H26.1667V19.6667C26.1667 19.3 25.8667 19 25.5 19C25.1333 19 24.8333 19.3 24.8333 19.6667V20.3333H23.8867C22.57 20.3333 21.5 21.4033 21.5 22.72V34.6133C21.5 35.93 22.57 37 23.8867 37ZM22.8334 22.72C22.8334 22.14 23.3067 21.6667 23.8867 21.6667H24.8333V22.3333C24.8333 22.7 25.1333 23 25.5 23C25.8667 23 26.1666 22.7 26.1666 22.3333V21.6667H34.1667V22.3333C34.1667 22.7 34.4666 23 34.8333 23C35.2 23 35.5 22.7 35.5 22.3333V21.6667H36.4466C37.0266 21.6667 37.4999 22.14 37.4999 22.72V34.6133C37.4999 35.1933 37.0266 35.6666 36.4466 35.6666H23.8867C23.3067 35.6666 22.8334 35.1933 22.8334 34.6133V22.72Z" fill="#BABABA"/>
<path d="M26.3333 26.6671C26.7935 26.6671 27.1666 26.294 27.1666 25.8338C27.1666 25.3736 26.7935 25.0005 26.3333 25.0005C25.8731 25.0005 25.5 25.3736 25.5 25.8338C25.5 26.294 25.8731 26.6671 26.3333 26.6671Z" fill="#BABABA"/>
<path d="M29.9991 26.6671C30.4593 26.6671 30.8324 26.294 30.8324 25.8338C30.8324 25.3736 30.4593 25.0005 29.9991 25.0005C29.5389 25.0005 29.1658 25.3736 29.1658 25.8338C29.1658 26.294 29.5389 26.6671 29.9991 26.6671Z" fill="#BABABA"/>
<path d="M33.6668 26.6671C34.127 26.6671 34.5001 26.294 34.5001 25.8338C34.5001 25.3736 34.127 25.0005 33.6668 25.0005C33.2066 25.0005 32.8335 25.3736 32.8335 25.8338C32.8335 26.294 33.2066 26.6671 33.6668 26.6671Z" fill="#BABABA"/>
<path d="M26.3332 30.0002C26.7935 30.0002 27.1665 29.6271 27.1665 29.1669C27.1665 28.7066 26.7935 28.3335 26.3332 28.3335C25.873 28.3335 25.4999 28.7066 25.4999 29.1669C25.4999 29.6271 25.873 30.0002 26.3332 30.0002Z" fill="#BABABA"/>
<path d="M29.9992 30.0002C30.4594 30.0002 30.8325 29.6271 30.8325 29.1669C30.8325 28.7066 30.4594 28.3335 29.9992 28.3335C29.5389 28.3335 29.1658 28.7066 29.1658 29.1669C29.1658 29.6271 29.5389 30.0002 29.9992 30.0002Z" fill="#BABABA"/>
<path d="M33.6668 30.0002C34.127 30.0002 34.5001 29.6271 34.5001 29.1669C34.5001 28.7066 34.127 28.3335 33.6668 28.3335C33.2066 28.3335 32.8335 28.7066 32.8335 29.1669C32.8335 29.6271 33.2066 30.0002 33.6668 30.0002Z" fill="#BABABA"/>
<path d="M26.3333 33.3336C26.7935 33.3336 27.1666 32.9605 27.1666 32.5003C27.1666 32.0401 26.7935 31.667 26.3333 31.667C25.8731 31.667 25.5 32.0401 25.5 32.5003C25.5 32.9605 25.8731 33.3336 26.3333 33.3336Z" fill="#BABABA"/>
<path d="M29.9991 33.3336C30.4593 33.3336 30.8324 32.9605 30.8324 32.5003C30.8324 32.0401 30.4593 31.667 29.9991 31.667C29.5389 31.667 29.1658 32.0401 29.1658 32.5003C29.1658 32.9605 29.5389 33.3336 29.9991 33.3336Z" fill="#BABABA"/>
<path d="M33.6668 33.3336C34.127 33.3336 34.5001 32.9605 34.5001 32.5003C34.5001 32.0401 34.127 31.667 33.6668 31.667C33.2066 31.667 32.8335 32.0401 32.8335 32.5003C32.8335 32.9605 33.2066 33.3336 33.6668 33.3336Z" fill="#BABABA"/>
</g>
<defs>
<filter id="filter0_d_157_49" x="0.5" y="0" width="59.3333" height="60" filterUnits="userSpaceOnUse" color-interpolation-filters="sRGB">
<feFlood flood-opacity="0" result="BackgroundImageFix"/>
<feColorMatrix in="SourceAlpha" type="matrix" values="0 0 0 0 0 0 0 0 0 0 0 0 0 0 0 0 0 0 127 0" result="hardAlpha"/>
<feOffset dy="2"/>
<feGaussianBlur stdDeviation="5"/>
<feComposite in2="hardAlpha" operator="out"/>
<feColorMatrix type="matrix" values="0 0 0 0 0 0 0 0 0 0 0 0 0 0 0 0 0 0 0.1 0"/>
<feBlend mode="normal" in2="BackgroundImageFix" result="effect1_dropShadow_157_49"/>
<feBlend mode="normal" in="SourceGraphic" in2="effect1_dropShadow_157_49" result="shape"/>
</filter>
</defs>
</svg>
