<svg width="24" height="24" viewBox="0 0 24 24" fill="none" xmlns="http://www.w3.org/2000/svg">
<path d="M7.4 17.6C7.4 17.9713 7.5475 18.3274 7.81005 18.5899C8.0726 18.8525 8.4287 19 8.8 19H15.8C16.1713 19 16.5274 18.8525 16.79 18.5899C17.0525 18.3274 17.2 17.9713 17.2 17.6V9.2H18.6V7.8H15.8V6.4C15.8 6.0287 15.6525 5.6726 15.3899 5.41005C15.1274 5.1475 14.7713 5 14.4 5H10.2C9.8287 5 9.4726 5.1475 9.21005 5.41005C8.9475 5.6726 8.8 6.0287 8.8 6.4V7.8H6V9.2H7.4V17.6ZM10.2 6.4H14.4V7.8H10.2V6.4ZM9.5 9.2H15.8V17.6H8.8V9.2H9.5Z" fill="#8C8C8C"/>
<path d="M10.2 10.6H11.6V16.2H10.2V10.6ZM13 10.6H14.4V16.2H13V10.6Z" fill="#8C8C8C"/>
</svg>
