<svg width="24" height="25" viewBox="0 0 24 25" fill="none" xmlns="http://www.w3.org/2000/svg">
<path d="M11.9999 5.54133C10.7484 5.54292 9.54854 6.0408 8.66356 6.92578C7.77858 7.81075 7.2807 9.01059 7.27911 10.2621H9.67911C9.67911 8.98173 10.7207 7.94133 11.9999 7.94133C13.2791 7.94133 14.3207 8.98173 14.3207 10.2621C14.3207 10.9797 13.7435 11.5005 12.8615 12.2133C12.5734 12.4391 12.2966 12.6789 12.0323 12.9321C10.8347 14.1285 10.7999 15.3993 10.7999 15.5409V16.3413H13.1999L13.1987 15.5817C13.1999 15.5625 13.2383 15.1185 13.7279 14.6301C13.9079 14.4501 14.1347 14.2701 14.3699 14.0805C15.3047 13.3233 16.7195 12.1797 16.7195 10.2621C16.7186 9.0106 16.2211 7.81058 15.3362 6.9255C14.4513 6.04042 13.2514 5.5426 11.9999 5.54133ZM10.7999 17.5413H13.1999V19.9413H10.7999V17.5413Z" fill="#8C8C8C"/>
<path d="M12 0.741333C5.3832 0.741333 0 6.12453 0 12.7413C0 19.3581 5.3832 24.7413 12 24.7413C18.6168 24.7413 24 19.3581 24 12.7413C24 6.12453 18.6168 0.741333 12 0.741333ZM12 22.3413C6.7068 22.3413 2.4 18.0345 2.4 12.7413C2.4 7.44813 6.7068 3.14133 12 3.14133C17.2932 3.14133 21.6 7.44813 21.6 12.7413C21.6 18.0345 17.2932 22.3413 12 22.3413Z" fill="#8C8C8C"/>
</svg>
