<svg width="48" height="48" viewBox="0 0 48 48" fill="none" xmlns="http://www.w3.org/2000/svg">
<path d="M19.1998 33.5434H28.8002V44.6497H19.1998V33.5434Z" fill="#C7C5CB"/>
<path d="M47.2969 6.22086V26.0256L24 31.2395L0.703125 26.0256V6.22086C0.703125 3.19086 3.15937 0.733673 6.19031 0.733673H41.8097C44.8406 0.733673 47.2969 3.19086 47.2969 6.22086Z" fill="#80DFB5"/>
<path d="M19.1998 33.5434H28.8002V39.266H19.1998V33.5434Z" fill="#B2B0BC"/>
<path d="M4.28419 12.8421C4.28419 8.5333 5.19384 4.43755 6.82856 0.733673H6.19031C3.15937 0.733673 0.703125 3.19086 0.703125 6.22086V26.0256L7.61344 27.5721C5.42653 23.2203 4.28419 18.1954 4.28419 12.8421Z" fill="#36D39A"/>
<path d="M47.2969 26.0256V30.9662C47.2969 33.9962 44.8406 36.4534 41.8097 36.4534H6.19031C3.15937 36.4534 0.703125 33.9962 0.703125 30.9662V26.0256H47.2969Z" fill="#C7C5CB"/>
<path d="M24 33.5433C25.2723 33.5433 26.3038 32.5118 26.3038 31.2395C26.3038 29.9671 25.2723 28.9357 24 28.9357C22.7276 28.9357 21.6962 29.9671 21.6962 31.2395C21.6962 32.5118 22.7276 33.5433 24 33.5433Z" fill="#77718C"/>
<path d="M13.7422 12.8383C15.8326 12.8383 17.5272 11.4888 17.5272 9.82415C17.5272 8.15948 15.8326 6.81 13.7422 6.81C11.6518 6.81 9.95721 8.15948 9.95721 9.82415C9.95721 11.4888 11.6518 12.8383 13.7422 12.8383Z" fill="white"/>
<path d="M34.2579 12.8383C36.3482 12.8383 38.0428 11.4888 38.0428 9.82415C38.0428 8.15948 36.3482 6.81 34.2579 6.81C32.1675 6.81 30.4729 8.15948 30.4729 9.82415C30.4729 11.4888 32.1675 12.8383 34.2579 12.8383Z" fill="white"/>
<path d="M24 9.75645C25.1096 9.75645 26.0092 8.74989 26.0092 7.50823C26.0092 6.26657 25.1096 5.26001 24 5.26001C22.8904 5.26001 21.9908 6.26657 21.9908 7.50823C21.9908 8.74989 22.8904 9.75645 24 9.75645Z" fill="#423E4F"/>
<path d="M30.3009 42.0333H17.6992C16.1635 42.0333 14.9185 43.2783 14.9185 44.814V45.4401C14.9185 46.4486 15.7361 47.2663 16.7447 47.2663H31.2553C32.2639 47.2663 33.0816 46.4487 33.0816 45.4401V44.814C33.0816 43.2782 31.8366 42.0333 30.3009 42.0333Z" fill="#B2B0BC"/>
<path d="M6.89213 26.0256H0.703125V30.9662C0.703125 33.9962 3.15937 36.4534 6.19031 36.4534H14.7067C11.2797 33.6704 8.65228 30.1079 6.89213 26.0256Z" fill="#B2B0BC"/>
<path d="M27.007 31.2395C27.007 29.5814 25.6581 28.2325 24.0001 28.2325C22.342 28.2325 20.993 29.5815 20.993 31.2395C20.993 32.8974 22.342 34.2464 24.0001 34.2464C25.658 34.2465 27.007 32.8975 27.007 31.2395ZM22.3993 31.2395C22.3993 30.3568 23.1174 29.6388 24.0001 29.6388C24.8827 29.6388 25.6008 30.3569 25.6008 31.2395C25.6008 32.122 24.8827 32.8402 24.0001 32.8402C23.1174 32.8403 22.3993 32.1221 22.3993 31.2395Z" fill="black"/>
<path d="M34.2533 16.0764H29.3653C28.977 16.0764 28.6622 16.3912 28.6622 16.7795C28.6622 17.1679 28.977 17.4827 29.3653 17.4827H34.2533C34.6416 17.4827 34.9564 17.1679 34.9564 16.7795C34.9564 16.3912 34.6416 16.0764 34.2533 16.0764Z" fill="black"/>
<path d="M34.2533 18.7569H29.3653C28.977 18.7569 28.6622 19.0717 28.6622 19.4601C28.6622 19.8484 28.977 20.1632 29.3653 20.1632H34.2533C34.6416 20.1632 34.9564 19.8484 34.9564 19.4601C34.9564 19.0717 34.6416 18.7569 34.2533 18.7569Z" fill="black"/>
<path d="M15.9292 21.267C16.3175 21.267 16.6323 20.9522 16.6323 20.5638V18.7939H18.3442C18.7326 18.7939 19.0473 18.4791 19.0473 18.0908C19.0473 17.7025 18.7326 17.3877 18.3442 17.3877H16.6323V15.6758C16.6323 15.2875 16.3175 14.9727 15.9292 14.9727C15.5409 14.9727 15.2261 15.2875 15.2261 15.6758V17.3877H13.4561C13.0677 17.3877 12.7529 17.7025 12.7529 18.0908C12.7529 18.4791 13.0677 18.7939 13.4561 18.7939H15.2261V20.5638C15.2261 20.9522 15.5409 21.267 15.9292 21.267Z" fill="black"/>
<path d="M41.8427 14.8767C41.798 14.3402 41.4795 13.9039 41.0312 13.7651C40.5881 13.6279 40.1134 13.8042 39.7613 14.2363C39.3371 14.7568 37.2421 18.5416 36.8265 19.2949C36.5684 19.7628 36.9073 20.3377 37.4421 20.3377H40.4321C40.4283 20.8598 40.4243 21.3616 40.4205 21.811C40.4171 22.1993 40.7292 22.5168 41.1175 22.5201H41.1237C41.5092 22.5201 41.8233 22.2093 41.8267 21.823C41.8291 21.5519 41.8336 21.0077 41.8385 20.3376H42.0856C42.4739 20.3376 42.7887 20.0228 42.7887 19.6345C42.7887 19.2462 42.4739 18.9314 42.0856 18.9314H41.8479C41.8587 17.1245 41.865 15.1432 41.8427 14.8767ZM40.4414 18.9315H38.6364C39.3354 17.6789 40.0239 16.4703 40.4512 15.7552C40.4533 16.5033 40.4486 17.6958 40.4414 18.9315Z" fill="black"/>
<path d="M8.26442 17.7305C7.09142 19.4064 6.39139 20.3231 6.01527 20.8155C5.55505 21.418 5.38283 21.6435 5.50536 22.0417C5.57633 22.2724 5.75155 22.4496 5.98611 22.5278C6.3043 22.6339 9.01649 22.5876 9.98539 22.5754C10.3737 22.5706 10.6846 22.2518 10.6796 21.8635C10.6747 21.4752 10.3587 21.1664 9.96767 21.1693C9.11258 21.18 8.20039 21.1852 7.49971 21.1863C7.9168 20.6331 8.53555 19.7956 9.41652 18.5369C9.82958 17.9466 10.3663 16.9963 10.3663 16.2423C10.3663 14.8113 9.20211 13.6471 7.77102 13.6471C6.53361 13.6471 5.46271 14.5273 5.22449 15.74C5.14967 16.121 5.39792 16.4906 5.77892 16.5655C6.15974 16.6399 6.52949 16.3921 6.60439 16.0111C6.71342 15.4562 7.20402 15.0533 7.77102 15.0533C8.41339 15.0533 8.9383 15.5654 8.9593 16.2027C8.95208 16.2245 8.97889 16.7095 8.26442 17.7305Z" fill="black"/>
<path d="M24.1736 17.7305C23.0007 19.4064 22.3006 20.323 21.9246 20.8155C21.4644 21.4181 21.2921 21.6436 21.4147 22.0418C21.4856 22.2725 21.6609 22.4497 21.8953 22.5279C22.2136 22.6338 24.9257 22.5877 25.8946 22.5755C26.2829 22.5707 26.5937 22.2519 26.5888 21.8636C26.584 21.4753 26.2667 21.1665 25.8769 21.1694C25.0218 21.1801 24.1101 21.1853 23.4089 21.1863C23.8259 20.6332 24.4448 19.7957 25.3256 18.537C25.7369 17.9493 26.2754 16.9973 26.2754 16.2424C26.2754 14.8114 25.1112 13.6472 23.6801 13.6472C22.4428 13.6472 21.3718 14.5274 21.1336 15.7401C21.0588 16.1211 21.307 16.4907 21.688 16.5656C22.0689 16.64 22.4386 16.3922 22.5135 16.0112C22.6225 15.4562 23.1131 15.0534 23.6801 15.0534C24.3225 15.0534 24.8474 15.5655 24.8685 16.2028C24.8612 16.2245 24.8881 16.7096 24.1736 17.7305Z" fill="black"/>
<path d="M15.078 6.18681V4.71869C15.078 4.33038 14.7633 4.01556 14.3749 4.01556C13.9866 4.01556 13.6718 4.33038 13.6718 4.71869V6.18681C13.6718 6.57513 13.9866 6.88994 14.3749 6.88994C14.7633 6.88994 15.078 6.57513 15.078 6.18681Z" fill="black"/>
<path d="M24 4.55688C22.5045 4.55688 21.2877 5.88082 21.2877 7.50823C21.2877 9.13563 22.5045 10.4596 24 10.4596C25.4956 10.4596 26.7123 9.13554 26.7123 7.50823C26.7123 5.88092 25.4956 4.55688 24 4.55688ZM24 9.05332C23.2799 9.05332 22.694 8.36013 22.694 7.50823C22.694 6.65632 23.2799 5.96313 24 5.96313C24.7202 5.96313 25.306 6.65632 25.306 7.50823C25.306 8.36023 24.7202 9.05332 24 9.05332Z" fill="black"/>
<path d="M33.6251 4.01569C33.2368 4.01569 32.922 4.3305 32.922 4.71881V6.18694C32.922 6.57525 33.2368 6.89006 33.6251 6.89006C34.0134 6.89006 34.3282 6.57525 34.3282 6.18694V4.71881C34.3282 4.3305 34.0135 4.01569 33.6251 4.01569Z" fill="black"/>
<path d="M41.8097 0.0305481H35.9795C35.5912 0.0305481 35.2763 0.345361 35.2763 0.733673C35.2763 1.12199 35.5912 1.4368 35.9795 1.4368H41.8097C44.4476 1.4368 46.5938 3.58292 46.5938 6.22086V25.3224H1.40625V6.22086C1.40625 3.58292 3.55247 1.4368 6.19031 1.4368H33.167C33.5553 1.4368 33.8701 1.12199 33.8701 0.733673C33.8701 0.345361 33.5553 0.0305481 33.167 0.0305481H6.19031C2.77697 0.0305481 0 2.80752 0 6.22086V30.9662C0 34.3795 2.77697 37.1565 6.19031 37.1565H10.3692C10.7576 37.1565 11.0723 36.8417 11.0723 36.4534C11.0723 36.0651 10.7576 35.7502 10.3692 35.7502H6.19031C3.55237 35.7502 1.40625 33.6041 1.40625 30.9662V26.7287H46.5938V30.9662C46.5938 33.6041 44.4476 35.7502 41.8097 35.7502C40.9338 35.7502 14.068 35.7502 13.1817 35.7502C12.7934 35.7502 12.4786 36.0651 12.4786 36.4534C12.4786 36.8417 12.7934 37.1565 13.1817 37.1565H18.4967V41.3302H17.6992C15.7781 41.3302 14.2153 42.893 14.2153 44.814V45.4401C14.2153 46.8348 15.35 47.9694 16.7446 47.9694H31.2552C32.6499 47.9694 33.7846 46.8348 33.7846 45.4401V44.814C33.7846 42.893 32.2217 41.3302 30.3008 41.3302H29.5032V37.1565H41.8097C45.223 37.1565 48 34.3795 48 30.9662C48 30.7391 48 6.89483 48 6.22086C48 2.80752 45.223 0.0305481 41.8097 0.0305481ZM32.3784 44.814V45.4401C32.3784 46.0594 31.8746 46.5632 31.2553 46.5632H16.7447C16.1255 46.5632 15.6217 46.0594 15.6217 45.4401V44.814C15.6217 43.6684 16.5536 42.7364 17.6993 42.7364H30.3008C31.4465 42.7364 32.3784 43.6684 32.3784 44.814ZM28.0971 41.3301H19.9029V37.1565H28.0971V41.3301Z" fill="black"/>
</svg>
