<svg width="30" height="30" viewBox="0 0 30 30" fill="none" xmlns="http://www.w3.org/2000/svg">
<rect width="30" height="30" rx="6" fill="#D9B65C" fill-opacity="0.1"/>
<path d="M20.6347 11.2434H18.7565V17.2434H16.9565H14.8695L13.513 18.7564H16.513L18.7826 20.9999V18.7564H19.6956H20.2695H20.6347C20.8434 18.7564 21 18.5999 21 18.3912V18.026V17.9999V11.6347C21 11.426 20.8434 11.2434 20.6347 11.2434Z" fill="#D9B65C"/>
<path d="M13.2 16.513H18V9.36522C18 9.15652 17.8435 9 17.6348 9H9.36522C9.15652 9 9 9.15652 9 9.36522V16.1217C9 16.3304 9.15652 16.487 9.36522 16.487H11.2174V18.7304L13.2 16.513Z" fill="#D9B65C"/>
</svg>
