<svg width="22" height="30" viewBox="0 0 22 30" fill="none" xmlns="http://www.w3.org/2000/svg">
<g clip-path="url(#clip0_157_94)">
<path fill-rule="evenodd" clip-rule="evenodd" d="M4.4375 29.6163H7.0625V26.9913H4.4375V29.6163ZM9.6875 29.6163H12.3125V26.9913H9.6875V29.6163ZM12.3125 0.741333H9.6875V13.8663H12.3125V0.741333ZM17.0375 3.89133L15.2 5.72883C17.3 7.17258 18.875 9.66633 18.875 12.5538C18.875 16.8851 15.3312 20.4288 11 20.4288C6.66875 20.4288 3.125 16.8851 3.125 12.5538C3.125 9.66633 4.7 7.17258 6.93125 5.86008L4.9625 3.89133C2.3375 5.86008 0.5 9.01008 0.5 12.5538C0.5 18.3288 5.225 23.0538 11 23.0538C16.775 23.0538 21.5 18.3288 21.5 12.5538C21.5 9.01008 19.6625 5.86008 17.0375 3.89133ZM14.9375 29.6163H17.5625V26.9913H14.9375V29.6163Z" fill="#8C8C8C"/>
</g>
<defs>
<clipPath id="clip0_157_94">
<rect width="21" height="28.875" fill="white" transform="translate(0.5 0.741333)"/>
</clipPath>
</defs>
</svg>
