<svg width="16" height="18" viewBox="0 0 16 18" fill="none" xmlns="http://www.w3.org/2000/svg">
<path d="M7.39512 8.67064C8.5863 8.67064 9.61778 8.24341 10.4606 7.40049C11.3033 6.5577 11.7306 5.5265 11.7306 4.33518C11.7306 3.14427 11.3033 2.11293 10.4604 1.26988C9.6175 0.427228 8.58617 0 7.39512 0C6.20379 0 5.1726 0.427228 4.32981 1.27001C3.48703 2.1128 3.05966 3.14413 3.05966 4.33518C3.05966 5.5265 3.48703 6.55784 4.32995 7.40062C5.17287 8.24327 6.20421 8.67064 7.39512 8.67064Z" fill="#707070" fill-opacity="0.6"/>
<path d="M14.981 13.841C14.9566 13.4903 14.9075 13.1077 14.8351 12.7037C14.7621 12.2966 14.668 11.9118 14.5554 11.5602C14.4391 11.1966 14.2809 10.8377 14.0853 10.4937C13.8823 10.1366 13.6439 9.8257 13.3764 9.56986C13.0967 9.30221 12.7542 9.08702 12.3581 8.93005C11.9634 8.77391 11.5261 8.69481 11.0582 8.69481C10.8744 8.69481 10.6967 8.7702 10.3536 8.99363C10.1423 9.13137 9.89529 9.29067 9.61954 9.46687C9.38375 9.6171 9.06432 9.75786 8.66978 9.8853C8.28485 10.0099 7.89401 10.073 7.50826 10.073C7.12251 10.073 6.73181 10.0099 6.34647 9.8853C5.95234 9.758 5.63291 9.61724 5.39739 9.467C5.12425 9.29246 4.87706 9.13316 4.66269 8.9935C4.31992 8.77006 4.14208 8.69467 3.95834 8.69467C3.49032 8.69467 3.05307 8.77391 2.65853 8.93019C2.26275 9.08688 1.92012 9.30207 1.64011 9.57C1.37273 9.82598 1.13419 10.1368 0.931494 10.4937C0.736077 10.8377 0.577875 11.1965 0.461421 11.5603C0.34895 11.912 0.25488 12.2966 0.181822 12.7037C0.10945 13.1072 0.0602869 13.4899 0.0359799 13.8414C0.0120848 14.1859 0 14.5433 0 14.9044C0 15.844 0.298688 16.6046 0.887687 17.1656C1.46941 17.7192 2.23913 18 3.17516 18H11.8422C12.7782 18 13.5477 17.7193 14.1295 17.1656C14.7187 16.605 15.0173 15.8442 15.0173 14.9042C15.0172 14.5415 15.005 14.1838 14.981 13.841Z" fill="#707070" fill-opacity="0.6"/>
</svg>
