<svg width="26" height="25" viewBox="0 0 26 25" fill="none" xmlns="http://www.w3.org/2000/svg">
<path d="M24.729 21.5308L17.1053 13.9055C16.0958 12.896 16.5832 12.1545 16.5832 12.1545L16.5786 12.1495C16.9157 11.4551 16.8022 10.5988 16.2267 10.0222L13.2591 7.05463C12.5307 6.32586 11.3497 6.32586 10.6209 7.05463L10.1675 7.50727L10.1193 7.55593C10.1193 7.55593 9.91109 7.96994 10.86 8.02517L10.8604 8.02633C10.8604 8.02633 11.2968 8.06341 11.7232 8.48978L12.7737 9.54026C13.1575 9.92376 13.168 10.3239 13.1502 10.5038C13.0625 10.9982 12.8347 11.4721 12.4519 11.8536C12.0731 12.2337 11.6019 12.4596 11.1114 12.5476C10.894 12.5677 10.4804 12.5303 10.0223 12.0722L9.22596 11.2747C8.72428 10.773 8.61769 10.1257 8.61769 10.1257H8.61653C8.42227 9.24558 8.15656 9.51979 8.15656 9.51979L7.65449 10.0219C6.92611 10.7499 6.92611 11.9313 7.65411 12.66L10.6213 15.6269C11.2277 16.2336 12.1457 16.3274 12.8575 15.9246L12.8629 15.9304C12.8629 15.9304 13.5159 15.5176 14.3949 16.3973L22.3068 24.3103C22.3068 24.3103 23.2684 25.2546 24.1756 24.3478L24.9241 23.5993C25.177 23.3166 25.7127 22.5145 24.729 21.5308Z" fill="#8C8C8C"/>
<path d="M16.4625 20.4928C15.989 19.9297 15.2289 20.2788 15.2289 20.2788L15.227 20.2738C15.1621 20.2958 15.0984 20.3217 15.0324 20.3422C15.0115 20.3499 14.9984 20.3584 14.974 20.3681C13.9359 20.7504 13.9263 21.5398 13.9263 21.5398V22.4655C13.9116 23.2534 13.2829 23.3917 12.9577 23.4125H12.5811C11.7732 23.4287 11.6283 22.9348 11.6075 22.6706V21.6047C11.6075 20.6245 10.5134 20.3538 10.5134 20.3538L10.5168 20.3491C9.9244 20.1738 9.36402 19.9247 8.83762 19.6258C8.81561 19.6161 8.79823 19.6103 8.77428 19.5984C7.88871 19.1546 7.22868 19.7806 7.22868 19.7806L6.47597 20.5334C5.95034 21.0571 5.56143 20.813 5.41892 20.6836L5.35829 20.6222L5.35597 20.6191H5.35559L4.73727 20.0008C4.73688 19.9996 4.73611 19.9996 4.73495 19.9985C4.25104 19.5153 4.88055 18.8507 4.96436 18.7669L5.69854 18.0334C5.69892 18.0334 5.69892 18.0315 5.69892 18.0315C6.26472 17.4657 5.82019 16.5848 5.82019 16.5848C5.82019 16.5848 5.82637 16.5836 5.82753 16.5836C5.54521 16.0707 5.31194 15.5274 5.14549 14.9527C5.14008 14.9376 5.1339 14.928 5.12811 14.9121C4.75542 13.8817 3.8154 13.8991 3.79724 13.8991L3.08392 13.9022C2.24894 13.9034 2.09871 13.3607 2.07631 13.0753L2.07438 12.5003C2.0794 12.2628 2.16552 11.5908 3.01016 11.5834C3.01054 11.5834 3.01054 11.5834 3.01054 11.5834L3.92469 11.5796C3.92469 11.5796 4.78632 11.6197 5.09219 10.7017C5.09644 10.6901 5.10223 10.6839 5.1061 10.6724C5.28954 9.99611 5.5541 9.35424 5.89782 8.76373C5.89782 8.76373 5.89782 8.76334 5.89782 8.76257C6.33423 7.88472 5.7109 7.22624 5.62941 7.1463L5.00761 6.52528C5.00761 6.52528 5.00761 6.52489 5.00646 6.52373C4.40668 5.92395 4.8176 5.40412 4.96011 5.25582L5.28414 4.93179C5.28414 4.93179 5.96772 4.20804 6.69147 4.93179C6.69263 4.93179 6.69263 4.93218 6.6934 4.93295L7.40016 5.63971C7.5334 5.766 8.07718 6.2082 8.85732 5.82933C8.86041 5.82818 8.86156 5.82818 8.86427 5.82702C9.36634 5.54277 9.90625 5.31954 10.4682 5.14807C10.4832 5.14189 10.4914 5.13455 10.5083 5.1276C11.4136 4.7719 11.5824 4.21383 11.6075 3.92534V2.87022C11.6125 2.69373 11.6801 1.99894 12.4915 1.99894H12.999C12.999 1.99894 13.9247 1.96805 13.9247 2.99883V3.79519C13.9297 4.02228 14.0089 4.77885 14.8817 5.08666C14.8833 5.08705 14.8833 5.08782 14.8856 5.08859C15.4139 5.23419 15.9179 5.43888 16.3961 5.68605L16.4011 5.6818C16.4011 5.6818 17.4902 6.35766 18.3124 5.5362L18.8624 4.98625C18.8879 4.96076 19.6321 4.2401 20.1886 4.79662C20.1898 4.79701 20.1909 4.79778 20.1909 4.79894L20.6466 5.2535C20.6466 5.2535 21.1993 5.92627 20.5034 6.6226L19.8874 7.2386C19.8874 7.2386 19.2451 7.8967 19.7116 8.89388C19.7197 8.91126 19.7197 8.92169 19.7271 8.93868C20.0113 9.45658 20.2357 10.0108 20.401 10.5913C20.4026 10.5901 20.4087 10.5851 20.4087 10.5851C20.4087 10.5851 20.608 11.5854 21.5002 11.583L22.366 11.5792H22.3892H22.4282C22.4533 11.5788 23.4856 11.5622 23.488 12.5373L23.4907 12.9471V12.9483V13.0491C23.4822 13.2905 23.3671 13.8937 22.4074 13.8972L21.577 13.8999C20.9278 13.9061 20.6049 14.4379 20.4628 14.7762C20.4087 14.9241 20.2825 15.4038 20.7405 15.8545L20.8583 15.9703C20.8606 15.9723 20.8621 15.9734 20.8637 15.9754C21.548 16.7091 22.0366 15.6815 22.0366 15.6815C22.3471 15.1655 22.8009 15.062 23.0438 15.0454H24.3102C24.6952 15.0454 25.0073 14.7337 25.0073 14.3483V11.1331C25.0073 10.7488 24.6952 10.436 24.3102 10.436H23.1021C22.1548 10.436 21.9157 9.557 21.9157 9.557C21.9157 9.557 21.9095 9.55854 21.9076 9.55931C21.7666 9.1538 21.6064 8.75639 21.4144 8.37714C21.4144 8.37598 21.4144 8.3752 21.4133 8.37405C21.0939 7.67115 21.6929 7.07215 21.7257 7.04086L22.4966 6.26845C22.7685 5.99618 22.7685 5.55513 22.4966 5.28247L20.2234 3.00926C19.9503 2.73737 19.5093 2.73775 19.2374 3.00964L18.6774 3.56887C17.803 4.44865 16.9831 4.02382 16.9831 4.02382L16.9819 4.02614C16.6676 3.87552 16.3459 3.73957 16.0153 3.62178C15.9998 3.61444 15.989 3.60788 15.9732 3.60131C15.2421 3.302 15.1459 2.55276 15.1366 2.2492V1.43856C15.1366 1.05351 14.8242 0.741455 14.4395 0.741455H11.0931C10.7088 0.741455 10.396 1.05351 10.396 1.43856V2.44617C10.396 3.45533 9.54245 3.60826 9.54245 3.60826L9.54747 3.61328C9.17825 3.74498 8.81638 3.89212 8.46802 4.06515C8.46184 4.06746 8.45837 4.0663 8.45219 4.06862C7.75624 4.37681 7.37158 4.0748 7.27387 3.98018L7.24993 3.95623L7.24645 3.95199H7.24606L6.30334 3.00733C6.03067 2.73544 5.58924 2.73544 5.31735 3.00617L3.04182 5.2786C2.76994 5.55127 2.76916 5.99193 3.04182 6.2642L3.79724 7.02039C3.79724 7.02039 4.45225 7.65184 4.12745 8.36092C4.12745 8.36207 4.12745 8.36207 4.12745 8.36207C3.93937 8.73167 3.78141 9.11827 3.6416 9.51297C3.63195 9.53344 3.62268 9.54927 3.61302 9.57322C3.32337 10.2804 2.78538 10.4151 2.49766 10.436H1.39852C1.01347 10.436 0.701416 10.7488 0.701416 11.1331V14.3483C0.701416 14.7337 1.01347 15.0454 1.39852 15.0454H2.64983C3.35774 15.0454 3.54389 15.6984 3.54389 15.6984C3.54389 15.6984 3.54891 15.6865 3.552 15.6807C3.69683 16.1314 3.86213 16.5728 4.06797 16.9918C4.06759 16.9918 4.06373 16.9938 4.06373 16.9938C4.06373 16.9938 4.50593 17.7434 4.01043 18.2389V18.2401L3.03758 19.2125C2.76569 19.4844 2.76569 19.927 3.03758 20.1977L5.31117 22.471C5.58383 22.7436 6.02449 22.7436 6.29638 22.471L7.17153 21.5974L7.17346 21.5947L7.21246 21.5564C7.33257 21.4421 7.75393 21.1312 8.56689 21.4668C8.57539 21.4711 8.58041 21.4722 8.58813 21.4749C8.89825 21.6217 9.21726 21.7553 9.54399 21.87L9.54013 21.8735C9.54013 21.8735 10.3963 22.1284 10.3963 22.9885V24.0436C10.3963 24.429 10.7092 24.7407 11.0934 24.7407H14.4399C14.8246 24.7407 15.137 24.429 15.137 24.0436V22.8881C15.1525 22.6332 15.2656 22.1519 15.8654 21.916C15.8886 21.9063 15.9033 21.8982 15.9214 21.8901C16.1531 21.8094 16.3756 21.7109 16.5996 21.6151C17.1407 21.3147 16.639 20.7021 16.639 20.7021L16.4625 20.4928Z" fill="#8C8C8C"/>
</svg>
