<svg width="19" height="18" viewBox="0 0 19 18" fill="none" xmlns="http://www.w3.org/2000/svg">
<path d="M10.3429 0.942864L12.3143 5.22858C12.4 5.48572 12.6572 5.65715 12.9143 5.74286L17.3714 6.42858C18.1429 6.42858 18.4 7.28572 17.8857 7.80001L14.6286 11.1429C14.4572 11.3143 14.3714 11.6571 14.3714 11.9143L15.1429 16.5429C15.2286 17.2286 14.5429 17.8286 13.9429 17.4857L9.91429 15.2571C9.65715 15.0857 9.40001 15.0857 9.14287 15.2571L5.1143 17.4857C4.5143 17.8286 3.74287 17.3143 3.91429 16.5429L4.68572 11.9143C4.77144 11.6571 4.60001 11.3143 4.42858 11.1429L1.17144 7.80001C0.742866 7.28572 1.00001 6.42858 1.68572 6.34286L6.14287 5.65715C6.40001 5.65715 6.65715 5.40001 6.74287 5.14286L8.71429 0.85715C9.14287 0.25715 10 0.25715 10.3429 0.942864Z" fill="#ECDCDC"/>
</svg>
