<svg width="30" height="30" viewBox="0 0 30 30" fill="none" xmlns="http://www.w3.org/2000/svg">
<rect width="30" height="30" rx="6" fill="#53A4EE" fill-opacity="0.1"/>
<g clip-path="url(#clip0_1_4010)">
<path d="M13.0698 13.5856C13.0975 13.5856 13.1246 13.5824 13.1523 13.5814C13.1301 13.4257 13.1144 13.2681 13.1144 13.1061C13.1144 11.7762 13.897 10.632 15.025 10.1001C14.622 9.44113 13.8983 9 13.0698 9C11.8036 9 10.777 10.0265 10.777 11.2928C10.777 12.559 11.8033 13.5856 13.0698 13.5856Z" fill="#53A4EE"/>
<path d="M16.4285 15.6529C17.8351 15.6529 18.9754 14.5126 18.9754 13.106C18.9754 11.6994 17.8351 10.5592 16.4285 10.5592C15.0219 10.5592 13.8817 11.6994 13.8817 13.106C13.8817 14.5126 15.0219 15.6529 16.4285 15.6529Z" fill="#53A4EE"/>
<path d="M18.6503 15.617C18.0581 16.1416 17.2815 16.4624 16.4282 16.4624C15.5788 16.4624 14.8056 16.1444 14.2142 15.6245C12.6717 16.4663 11.6178 18.155 11.6178 20.1023C11.6178 20.4091 11.6452 20.7083 11.6953 20.9997H21.1831C21.2334 20.7086 21.2608 20.4091 21.2608 20.1026C21.2608 18.1492 20.2009 16.4562 18.6503 15.617Z" fill="#53A4EE"/>
<path d="M13.7379 15.0535C13.5741 14.8224 13.4371 14.5711 13.3357 14.3019C13.248 14.3095 13.1593 14.3144 13.0696 14.3144C12.3047 14.3144 11.6087 14.0283 11.0763 13.56C9.68792 14.3178 8.73914 15.8382 8.73914 17.5915C8.73914 17.8675 8.76392 18.1372 8.80879 18.3997H11.1728C11.5137 16.9524 12.4617 15.7404 13.7379 15.0535Z" fill="#53A4EE"/>
</g>
<defs>
<clipPath id="clip0_1_4010">
<rect width="12.5217" height="12" fill="white" transform="translate(8.73914 9)"/>
</clipPath>
</defs>
</svg>
