<svg width="60" height="19" viewBox="0 0 60 19" fill="none" xmlns="http://www.w3.org/2000/svg">
<ellipse cx="9.28456" cy="9.5" rx="9.28456" ry="9.5" fill="#723DFB"/>
<path d="M9.51876 10.3214L5.58103 9.86074C5.44611 9.87606 5.30954 9.86268 5.1799 9.82145C5.05026 9.78021 4.93034 9.71201 4.82768 9.62112C4.72501 9.53023 4.64181 9.4186 4.58329 9.29326C4.52477 9.16791 4.4922 9.03155 4.48762 8.89272C4.48305 8.75389 4.50656 8.6156 4.55668 8.48651C4.60681 8.35743 4.68247 8.24034 4.77891 8.14259C4.87536 8.04484 4.99051 7.96854 5.11714 7.91848C5.24377 7.86842 5.37914 7.84568 5.51477 7.85169L11.0833 7.61947C11.3411 7.61137 11.5917 7.70699 11.7813 7.88582C11.9709 8.06465 12.0845 8.31242 12.0976 8.57595L12.3251 14.2737C12.3179 14.5276 12.2173 14.7693 12.0435 14.9505C11.8696 15.1318 11.6354 15.2392 11.3875 15.2514C11.1395 15.2635 10.8963 15.1794 10.7063 15.016C10.5163 14.8526 10.3936 14.6218 10.3627 14.3698L9.51876 10.3214Z" fill="white"/>
<path d="M25.5691 2.52699H27.6674V14.592H31.5855V16.492H25.5691V2.52699Z" fill="black"/>
<path d="M38.0223 9.97499L37.1681 7.99899L36.7782 9.97499L35.5155 16.492H33.4543L36.2768 2.52699H36.4996L40.2506 10.07L41.3647 12.597L42.4789 10.07L46.1556 2.52699H46.3598L49.2937 16.492H47.2511L45.877 9.97499L45.4685 7.99899L44.7257 9.97499L41.4204 16.492H41.309L38.0223 9.97499Z" fill="black"/>
<path d="M55.19 16.682C54.4473 16.682 53.7107 16.549 52.9803 16.283C52.2499 16.017 51.7238 15.7193 51.4019 15.39L52.3861 13.585C52.646 13.8257 53.0484 14.079 53.5931 14.345C54.1501 14.5983 54.6825 14.725 55.19 14.725C55.8461 14.725 56.3784 14.5667 56.787 14.25C57.2079 13.9333 57.4183 13.4963 57.4183 12.939C57.4183 12.5083 57.3069 12.1347 57.0841 11.818C56.8612 11.5013 56.5889 11.2417 56.267 11.039C55.9452 10.8237 55.4871 10.564 54.8929 10.26C54.1873 9.90533 53.7045 9.63933 53.4445 9.46199C52.2437 8.63866 51.6433 7.49866 51.6433 6.04199C51.6433 4.83866 52.0333 3.92033 52.8132 3.28699C53.5931 2.64099 54.5772 2.31799 55.7657 2.31799C57.0407 2.31799 58.1239 2.69166 59.0153 3.43899L58.0311 5.16799C57.7959 4.91466 57.4616 4.69933 57.0284 4.52199C56.6075 4.33199 56.1556 4.23699 55.6728 4.23699C55.0538 4.23699 54.5649 4.38266 54.2059 4.67399C53.8592 4.95266 53.6859 5.37066 53.6859 5.92799C53.6859 6.32066 53.7973 6.67533 54.0202 6.99199C54.243 7.29599 54.5215 7.56199 54.8558 7.78999C55.2024 8.01799 55.6666 8.29666 56.2485 8.62599C56.8055 8.94266 57.2326 9.19599 57.5297 9.38599C57.8268 9.56333 58.1054 9.77866 58.3653 10.032C58.7243 10.3613 59.0153 10.754 59.2381 11.21C59.4609 11.666 59.5723 12.1663 59.5723 12.711C59.5723 13.5597 59.3804 14.2817 58.9967 14.877C58.6253 15.4723 58.1054 15.922 57.4369 16.226C56.7808 16.53 56.0318 16.682 55.19 16.682Z" fill="black"/>
</svg>
